<svg width="1100" height="620" viewBox="0 0 1100 620" xmlns="http://www.w3.org/2000/svg" font-family="Inter, Helvetica, Arial, sans-serif">
  <rect width="1100" height="620" fill="#1e1e1e"/>
  <text x="550" y="50" text-anchor="middle" font-size="24" font-weight="700" fill="#e8e8e8">Banc d’essai — caractériser le verrou avant intégration</text>

  <rect x="215" y="95" width="670" height="80" rx="14" fill="#243828" stroke="#8fd382"/>
  <text x="550" y="126" text-anchor="middle" font-size="14" font-weight="700" fill="#e8e8e8">MESURES À CONSIGNER</text>
  <text x="550" y="151" text-anchor="middle" font-size="12" fill="#b0b0b0">courant • durée d’impulsion • ouverture mécanique • échauffement • repos sans tension</text>

  <ellipse cx="160" cy="275" rx="115" ry="55" fill="#3a3a3a" stroke="#b0b0b0" stroke-width="2"/>
  <text x="160" y="268" text-anchor="middle" font-size="16" font-weight="700" fill="#e8e8e8">alimentation 12 V</text>
  <text x="160" y="292" text-anchor="middle" font-size="11" fill="#b0b0b0">limitée et adaptée au composant</text>

  <rect x="335" y="225" width="155" height="90" rx="12" fill="#454545" stroke="#a3a3a3" stroke-dasharray="7 5"/>
  <text x="412.5" y="262" text-anchor="middle" font-size="14" font-weight="700" fill="#e8e8e8">protection</text>
  <text x="412.5" y="287" text-anchor="middle" font-size="10" fill="#b0b0b0">selon la fiche technique</text>

  <rect x="550" y="225" width="155" height="90" rx="12" fill="#454545" stroke="#a3a3a3"/>
  <text x="627.5" y="262" text-anchor="middle" font-size="15" font-weight="700" fill="#e8e8e8">interrupteur</text>
  <text x="627.5" y="287" text-anchor="middle" font-size="13" fill="#b0b0b0">momentané</text>

  <ellipse cx="842.5" cy="270" rx="77.5" ry="55" fill="#0F2C46" stroke="#58A6FF" stroke-width="2"/>
  <text x="842.5" y="265" text-anchor="middle" font-size="15" font-weight="700" fill="#D6E8FB">AMPÈREMÈTRE</text>
  <text x="842.5" y="290" text-anchor="middle" font-size="11" fill="#D6E8FB">en série</text>

  <rect x="765" y="410" width="250" height="105" rx="14" fill="#5a4420" stroke="#e0a94a" stroke-width="2"/>
  <text x="890" y="453" text-anchor="middle" font-size="16" font-weight="700" fill="#f5e0b8">verrou rotatif 12 V</text>
  <text x="890" y="480" text-anchor="middle" font-size="11" fill="#f5e0b8">candidat Sutertech</text>

  <path d="M275 270 H335" stroke="#e8e8e8" stroke-width="2"/>
  <polygon points="325,264 335,270 325,276" fill="#e8e8e8"/>
  <rect x="280" y="239" width="50" height="22" rx="7" fill="#1e1e1e"/>
  <text x="305" y="255" text-anchor="middle" font-size="12" fill="#e8e8e8">+12 V</text>
  <path d="M490 270 H550" stroke="#e8e8e8" stroke-width="2"/>
  <polygon points="540,264 550,270 540,276" fill="#e8e8e8"/>
  <rect x="486" y="239" width="68" height="22" rx="7" fill="#1e1e1e"/>
  <text x="520" y="255" text-anchor="middle" font-size="12" fill="#e8e8e8">protégé</text>
  <path d="M705 270 H765" stroke="#e0a94a" stroke-width="2"/>
  <polygon points="755,264 765,270 755,276" fill="#e0a94a"/>
  <rect x="704" y="226" width="62" height="38" rx="7" fill="#1e1e1e"/>
  <text x="735" y="244" text-anchor="middle" font-size="11" fill="#e0a94a">impulsion</text>
  <text x="735" y="258" text-anchor="middle" font-size="11" fill="#e0a94a">contrôlée</text>
  <path d="M842.5 325 V370 H890 V410" stroke="#e0a94a" stroke-width="2" fill="none"/>
  <polygon points="884,400 890,410 896,400" fill="#e0a94a"/>
  <rect x="899" y="353" width="112" height="23" rx="7" fill="#1e1e1e"/>
  <text x="955" y="369" text-anchor="middle" font-size="12" fill="#e0a94a">courant mesuré</text>
  <path d="M890 515 V550 H160 V330" stroke="#b0b0b0" stroke-width="2" fill="none"/>
  <polygon points="154,340 160,330 166,340" fill="#b0b0b0"/>
  <rect x="478" y="554" width="84" height="22" rx="7" fill="#1e1e1e"/>
  <text x="520" y="570" text-anchor="middle" font-size="12" fill="#b0b0b0">retour 0 V</text>
  <text x="550" y="598" text-anchor="middle" font-size="11" fill="#b0b0b0">Schéma de principe — montage final conditionné par la fiche et les mesures</text>
</svg>
