<svg width="780" height="490" viewBox="0 0 780 490" xmlns="http://www.w3.org/2000/svg" font-family="Helvetica, Arial, sans-serif">
  <rect width="780" height="490" fill="#ffffff"/>

  <line x1="420" y1="70" x2="420" y2="120" stroke="#666666" stroke-width="1.5"/>
  <ellipse cx="420" cy="45" rx="60" ry="25" fill="#F5F5F5" stroke="#666666"/>
  <text x="420" y="49" text-anchor="middle" font-size="13" fill="#333333">alimentation</text>

  <rect x="300" y="120" width="240" height="70" rx="10" fill="#d5e8d4" stroke="#82b366"/>
  <text x="420" y="150" text-anchor="middle" font-size="13" fill="#333333">hub</text>
  <text x="420" y="168" text-anchor="middle" font-size="12" fill="#333333">(écran + calcul + réseau MQTT)</text>

  <circle cx="329" cy="190" r="4" fill="#82b366"/>
  <circle cx="399" cy="190" r="4" fill="#82b366"/>
  <circle cx="469" cy="190" r="4" fill="#82b366"/>
  <circle cx="539" cy="190" r="4" fill="#82b366"/>

  <line x1="329" y1="190" x2="130" y2="360" stroke="#1a73e8" stroke-width="1.5"/>
  <line x1="399" y1="190" x2="310" y2="360" stroke="#1a73e8" stroke-width="1.5"/>
  <line x1="469" y1="190" x2="490" y2="360" stroke="#1a73e8" stroke-width="1.5"/>
  <line x1="539" y1="190" x2="670" y2="360" stroke="#1a73e8" stroke-width="1.5"/>

  <rect x="244" y="242" width="30" height="15" fill="#FAEEDA" stroke="#854F0B"/>
  <text x="259" y="253" text-anchor="middle" font-size="8" fill="#412402">PTC</text>
  <rect x="353" y="242" width="30" height="15" fill="#FAEEDA" stroke="#854F0B"/>
  <text x="368" y="253" text-anchor="middle" font-size="8" fill="#412402">PTC</text>
  <rect x="461" y="242" width="30" height="15" fill="#FAEEDA" stroke="#854F0B"/>
  <text x="476" y="253" text-anchor="middle" font-size="8" fill="#412402">PTC</text>
  <rect x="570" y="242" width="30" height="15" fill="#FAEEDA" stroke="#854F0B"/>
  <text x="585" y="253" text-anchor="middle" font-size="8" fill="#412402">PTC</text>

  <text x="170" y="290" text-anchor="middle" font-size="11" fill="#1a73e8">power + data</text>
  <text x="340" y="300" text-anchor="middle" font-size="11" fill="#1a73e8">power + data</text>
  <text x="500" y="300" text-anchor="middle" font-size="11" fill="#1a73e8">power + data</text>
  <text x="650" y="290" text-anchor="middle" font-size="11" fill="#1a73e8">power + data</text>

  <rect x="60" y="360" width="140" height="60" rx="10" fill="#f5f5f5" stroke="#666666"/>
  <text x="130" y="385" text-anchor="middle" font-size="13" fill="#333333">cellule 1</text>
  <text x="130" y="403" text-anchor="middle" font-size="12" fill="#333333">lock + sensor</text>

  <rect x="240" y="360" width="140" height="60" rx="10" fill="#f5f5f5" stroke="#666666"/>
  <text x="310" y="385" text-anchor="middle" font-size="13" fill="#333333">cellule 2</text>
  <text x="310" y="403" text-anchor="middle" font-size="12" fill="#333333">lock + sensor</text>

  <rect x="420" y="360" width="140" height="60" rx="10" fill="#f5f5f5" stroke="#666666"/>
  <text x="490" y="385" text-anchor="middle" font-size="13" fill="#333333">cellule 3</text>
  <text x="490" y="403" text-anchor="middle" font-size="12" fill="#333333">lock + sensor</text>

  <rect x="600" y="360" width="140" height="60" rx="10" fill="#f5f5f5" stroke="#666666"/>
  <text x="670" y="385" text-anchor="middle" font-size="13" fill="#333333">cellule 4</text>
  <text x="670" y="403" text-anchor="middle" font-size="12" fill="#333333">lock + sensor</text>

  <text x="420" y="450" text-anchor="middle" font-size="12" fill="#666666">topologie étoile : 1 port + 1 fusible réarmable (PTC) dédié par cellule —</text>
  <text x="420" y="466" text-anchor="middle" font-size="12" fill="#666666">un court-circuit sur une cellule ne coupe ni les autres ni le hub</text>
</svg>
